<svg width="1266" height="203" viewBox="0 0 1266 203" fill="none" xmlns="http://www.w3.org/2000/svg">
<path d="M847 0H1164.69L1266 98.6727L1164.69 201H847L947.208 98.6727L847 0Z" fill="url(#paint0_linear_575_41)"/>
<path d="M420 2H766.503L877 100.673L766.503 203H420L529.296 100.673L420 2Z" fill="url(#paint1_linear_575_41)"/>
<path d="M0 2H346.503L457 100.673L346.503 203H0L109.296 100.673L0 2Z" fill="url(#paint2_linear_575_41)"/>
<path d="M132.293 114V92.91H136.373V114H132.293ZM135.293 105.36V101.73H145.913V105.36H135.293ZM135.293 96.51V92.91H146.423V96.51H135.293ZM155.397 114.3C154.117 114.3 152.977 114.03 151.977 113.49C150.997 112.95 150.227 112.2 149.667 111.24C149.107 110.28 148.827 109.17 148.827 107.91V99.51H152.787V107.82C152.787 108.42 152.887 108.94 153.087 109.38C153.287 109.8 153.587 110.12 153.987 110.34C154.387 110.56 154.857 110.67 155.397 110.67C156.217 110.67 156.857 110.42 157.317 109.92C157.777 109.42 158.007 108.72 158.007 107.82V99.51H161.937V107.91C161.937 109.19 161.657 110.31 161.097 111.27C160.557 112.23 159.787 112.98 158.787 113.52C157.807 114.04 156.677 114.3 155.397 114.3ZM174.816 114V105.69C174.816 104.83 174.546 104.13 174.006 103.59C173.466 103.05 172.766 102.78 171.906 102.78C171.346 102.78 170.846 102.9 170.406 103.14C169.966 103.38 169.616 103.72 169.356 104.16C169.116 104.6 168.996 105.11 168.996 105.69L167.466 104.91C167.466 103.77 167.706 102.78 168.186 101.94C168.686 101.08 169.366 100.41 170.226 99.93C171.106 99.45 172.096 99.21 173.196 99.21C174.256 99.21 175.206 99.48 176.046 100.02C176.886 100.54 177.546 101.23 178.026 102.09C178.506 102.93 178.746 103.84 178.746 104.82V114H174.816ZM165.066 114V99.51H168.996V114H165.066ZM188.032 114.3C186.692 114.3 185.492 113.97 184.432 113.31C183.372 112.65 182.532 111.75 181.912 110.61C181.312 109.47 181.012 108.19 181.012 106.77C181.012 105.33 181.312 104.04 181.912 102.9C182.532 101.76 183.362 100.86 184.402 100.2C185.462 99.54 186.672 99.21 188.032 99.21C189.072 99.21 190.002 99.42 190.822 99.84C191.662 100.26 192.332 100.85 192.832 101.61C193.352 102.35 193.632 103.19 193.672 104.13V109.29C193.632 110.23 193.362 111.08 192.862 111.84C192.362 112.6 191.692 113.2 190.852 113.64C190.012 114.08 189.072 114.3 188.032 114.3ZM188.692 110.67C189.432 110.67 190.072 110.51 190.612 110.19C191.172 109.85 191.602 109.39 191.902 108.81C192.222 108.21 192.382 107.52 192.382 106.74C192.382 105.98 192.222 105.31 191.902 104.73C191.602 104.13 191.172 103.67 190.612 103.35C190.072 103.01 189.442 102.84 188.722 102.84C187.982 102.84 187.332 103.01 186.772 103.35C186.232 103.69 185.802 104.15 185.482 104.73C185.182 105.31 185.032 105.98 185.032 106.74C185.032 107.52 185.182 108.21 185.482 108.81C185.802 109.39 186.242 109.85 186.802 110.19C187.362 110.51 187.992 110.67 188.692 110.67ZM196.072 114H192.172V110.1L192.802 106.56L192.142 103.08V92.31H196.072V114ZM205.609 114.3C204.289 114.3 203.099 113.97 202.039 113.31C200.979 112.65 200.149 111.75 199.549 110.61C198.949 109.47 198.649 108.19 198.649 106.77C198.649 105.33 198.949 104.04 199.549 102.9C200.149 101.76 200.979 100.86 202.039 100.2C203.099 99.54 204.289 99.21 205.609 99.21C206.649 99.21 207.579 99.42 208.399 99.84C209.219 100.26 209.869 100.85 210.349 101.61C210.849 102.35 211.119 103.19 211.159 104.13V109.35C211.119 110.31 210.849 111.16 210.349 111.9C209.869 112.64 209.219 113.23 208.399 113.67C207.579 114.09 206.649 114.3 205.609 114.3ZM206.329 110.67C207.429 110.67 208.319 110.31 208.999 109.59C209.679 108.85 210.019 107.9 210.019 106.74C210.019 105.98 209.859 105.31 209.539 104.73C209.239 104.13 208.809 103.67 208.249 103.35C207.709 103.01 207.069 102.84 206.329 102.84C205.609 102.84 204.969 103.01 204.409 103.35C203.869 103.67 203.439 104.13 203.119 104.73C202.819 105.31 202.669 105.98 202.669 106.74C202.669 107.52 202.819 108.21 203.119 108.81C203.439 109.39 203.869 109.85 204.409 110.19C204.969 110.51 205.609 110.67 206.329 110.67ZM209.809 114V110.1L210.439 106.56L209.809 103.08V99.51H213.709V114H209.809ZM217.185 114V99.51H221.115V114H217.185ZM226.635 114V105.45C226.635 104.61 226.365 103.96 225.825 103.5C225.305 103.02 224.655 102.78 223.875 102.78C223.355 102.78 222.885 102.89 222.465 103.11C222.045 103.31 221.715 103.61 221.475 104.01C221.235 104.41 221.115 104.89 221.115 105.45L219.585 104.7C219.585 103.58 219.825 102.61 220.305 101.79C220.805 100.97 221.475 100.34 222.315 99.9C223.155 99.44 224.105 99.21 225.165 99.21C226.165 99.21 227.075 99.44 227.895 99.9C228.715 100.34 229.365 100.97 229.845 101.79C230.325 102.59 230.565 103.56 230.565 104.7V114H226.635ZM236.085 114V105.45C236.085 104.61 235.815 103.96 235.275 103.5C234.755 103.02 234.105 102.78 233.325 102.78C232.825 102.78 232.355 102.89 231.915 103.11C231.495 103.31 231.165 103.61 230.925 104.01C230.685 104.41 230.565 104.89 230.565 105.45L228.315 104.91C228.395 103.75 228.705 102.75 229.245 101.91C229.785 101.05 230.495 100.39 231.375 99.93C232.255 99.45 233.235 99.21 234.315 99.21C235.395 99.21 236.365 99.44 237.225 99.9C238.085 100.34 238.765 100.98 239.265 101.82C239.765 102.66 240.015 103.66 240.015 104.82V114H236.085ZM250.131 114.3C248.611 114.3 247.261 113.98 246.081 113.34C244.901 112.68 243.961 111.78 243.261 110.64C242.581 109.5 242.241 108.2 242.241 106.74C242.241 105.3 242.571 104.02 243.231 102.9C243.911 101.76 244.831 100.86 245.991 100.2C247.151 99.52 248.441 99.18 249.861 99.18C251.261 99.18 252.491 99.5 253.551 100.14C254.631 100.76 255.471 101.62 256.071 102.72C256.691 103.8 257.001 105.03 257.001 106.41C257.001 106.67 256.981 106.94 256.941 107.22C256.921 107.48 256.871 107.78 256.791 108.12L244.611 108.15V105.21L254.961 105.18L253.371 106.41C253.331 105.55 253.171 104.83 252.891 104.25C252.631 103.67 252.241 103.23 251.721 102.93C251.221 102.61 250.601 102.45 249.861 102.45C249.081 102.45 248.401 102.63 247.821 102.99C247.241 103.33 246.791 103.82 246.471 104.46C246.171 105.08 246.021 105.82 246.021 106.68C246.021 107.56 246.181 108.33 246.501 108.99C246.841 109.63 247.321 110.13 247.941 110.49C248.561 110.83 249.281 111 250.101 111C250.841 111 251.511 110.88 252.111 110.64C252.711 110.38 253.231 110 253.671 109.5L255.981 111.81C255.281 112.63 254.421 113.25 253.401 113.67C252.401 114.09 251.311 114.3 250.131 114.3ZM269.181 114V105.69C269.181 104.83 268.911 104.13 268.371 103.59C267.831 103.05 267.131 102.78 266.271 102.78C265.711 102.78 265.211 102.9 264.771 103.14C264.331 103.38 263.981 103.72 263.721 104.16C263.481 104.6 263.361 105.11 263.361 105.69L261.831 104.91C261.831 103.77 262.071 102.78 262.551 101.94C263.051 101.08 263.731 100.41 264.591 99.93C265.471 99.45 266.461 99.21 267.561 99.21C268.621 99.21 269.571 99.48 270.411 100.02C271.251 100.54 271.911 101.23 272.391 102.09C272.871 102.93 273.111 103.84 273.111 104.82V114H269.181ZM259.431 114V99.51H263.361V114H259.431ZM278.231 114V93.48H282.161V114H278.231ZM274.841 102.96V99.51H285.551V102.96H274.841ZM293.47 114.3C292.15 114.3 290.96 113.97 289.9 113.31C288.84 112.65 288.01 111.75 287.41 110.61C286.81 109.47 286.51 108.19 286.51 106.77C286.51 105.33 286.81 104.04 287.41 102.9C288.01 101.76 288.84 100.86 289.9 100.2C290.96 99.54 292.15 99.21 293.47 99.21C294.51 99.21 295.44 99.42 296.26 99.84C297.08 100.26 297.73 100.85 298.21 101.61C298.71 102.35 298.98 103.19 299.02 104.13V109.35C298.98 110.31 298.71 111.16 298.21 111.9C297.73 112.64 297.08 113.23 296.26 113.67C295.44 114.09 294.51 114.3 293.47 114.3ZM294.19 110.67C295.29 110.67 296.18 110.31 296.86 109.59C297.54 108.85 297.88 107.9 297.88 106.74C297.88 105.98 297.72 105.31 297.4 104.73C297.1 104.13 296.67 103.67 296.11 103.35C295.57 103.01 294.93 102.84 294.19 102.84C293.47 102.84 292.83 103.01 292.27 103.35C291.73 103.67 291.3 104.13 290.98 104.73C290.68 105.31 290.53 105.98 290.53 106.74C290.53 107.52 290.68 108.21 290.98 108.81C291.3 109.39 291.73 109.85 292.27 110.19C292.83 110.51 293.47 110.67 294.19 110.67ZM297.67 114V110.1L298.3 106.56L297.67 103.08V99.51H301.57V114H297.67ZM305.047 114V92.31H308.977V114H305.047ZM322.908 117.69C321.828 116.73 320.888 115.56 320.088 114.18C319.308 112.82 318.708 111.33 318.288 109.71C317.868 108.07 317.658 106.37 317.658 104.61C317.658 102.83 317.868 101.13 318.288 99.51C318.708 97.87 319.308 96.37 320.088 95.01C320.888 93.63 321.828 92.46 322.908 91.5L325.128 93.54C323.828 94.78 322.818 96.34 322.098 98.22C321.398 100.1 321.048 102.23 321.048 104.61C321.048 106.97 321.398 109.09 322.098 110.97C322.818 112.85 323.828 114.41 325.128 115.65L322.908 117.69ZM327.849 114V92.91H331.929V114H327.849ZM330.849 114V110.37H341.589V114H330.849ZM350.649 114.3C349.129 114.3 347.779 113.98 346.599 113.34C345.419 112.68 344.479 111.78 343.779 110.64C343.099 109.5 342.759 108.2 342.759 106.74C342.759 105.3 343.089 104.02 343.749 102.9C344.429 101.76 345.349 100.86 346.509 100.2C347.669 99.52 348.959 99.18 350.379 99.18C351.779 99.18 353.009 99.5 354.069 100.14C355.149 100.76 355.989 101.62 356.589 102.72C357.209 103.8 357.519 105.03 357.519 106.41C357.519 106.67 357.499 106.94 357.459 107.22C357.439 107.48 357.389 107.78 357.309 108.12L345.129 108.15V105.21L355.479 105.18L353.889 106.41C353.849 105.55 353.689 104.83 353.409 104.25C353.149 103.67 352.759 103.23 352.239 102.93C351.739 102.61 351.119 102.45 350.379 102.45C349.599 102.45 348.919 102.63 348.339 102.99C347.759 103.33 347.309 103.82 346.989 104.46C346.689 105.08 346.539 105.82 346.539 106.68C346.539 107.56 346.699 108.33 347.019 108.99C347.359 109.63 347.839 110.13 348.459 110.49C349.079 110.83 349.799 111 350.619 111C351.359 111 352.029 110.88 352.629 110.64C353.229 110.38 353.749 110 354.189 109.5L356.499 111.81C355.799 112.63 354.939 113.25 353.919 113.67C352.919 114.09 351.829 114.3 350.649 114.3ZM364.425 114L358.035 99.51H362.355L366.945 111.45H364.815L369.435 99.51H373.605L367.245 114H364.425ZM381.908 114.3C380.388 114.3 379.038 113.98 377.858 113.34C376.678 112.68 375.738 111.78 375.038 110.64C374.358 109.5 374.018 108.2 374.018 106.74C374.018 105.3 374.348 104.02 375.008 102.9C375.688 101.76 376.608 100.86 377.768 100.2C378.928 99.52 380.218 99.18 381.638 99.18C383.038 99.18 384.268 99.5 385.328 100.14C386.408 100.76 387.248 101.62 387.848 102.72C388.468 103.8 388.778 105.03 388.778 106.41C388.778 106.67 388.758 106.94 388.718 107.22C388.698 107.48 388.648 107.78 388.568 108.12L376.388 108.15V105.21L386.738 105.18L385.148 106.41C385.108 105.55 384.948 104.83 384.668 104.25C384.408 103.67 384.018 103.23 383.498 102.93C382.998 102.61 382.378 102.45 381.638 102.45C380.858 102.45 380.178 102.63 379.598 102.99C379.018 103.33 378.568 103.82 378.248 104.46C377.948 105.08 377.798 105.82 377.798 106.68C377.798 107.56 377.958 108.33 378.278 108.99C378.618 109.63 379.098 110.13 379.718 110.49C380.338 110.83 381.058 111 381.878 111C382.618 111 383.288 110.88 383.888 110.64C384.488 110.38 385.008 110 385.448 109.5L387.758 111.81C387.058 112.63 386.198 113.25 385.178 113.67C384.178 114.09 383.088 114.3 381.908 114.3ZM391.209 114V92.31H395.139V114H391.209ZM407.57 114V92.91H411.59V114H407.57ZM403.43 96.45V92.91H411.29V96.45H403.43ZM416.546 117.69L414.356 115.65C415.656 114.41 416.656 112.85 417.356 110.97C418.056 109.09 418.406 106.97 418.406 104.61C418.406 102.23 418.056 100.1 417.356 98.22C416.656 96.34 415.656 94.78 414.356 93.54L416.546 91.5C417.646 92.46 418.586 93.63 419.366 95.01C420.146 96.37 420.746 97.87 421.166 99.51C421.606 101.13 421.826 102.83 421.826 104.61C421.826 106.37 421.606 108.07 421.166 109.71C420.746 111.33 420.146 112.82 419.366 114.18C418.586 115.56 417.646 116.73 416.546 117.69Z" fill="white"/>
<path d="M547.533 114V92.91H551.613V114H547.533ZM565.271 114V105.69C565.271 104.83 565.001 104.13 564.461 103.59C563.921 103.05 563.221 102.78 562.361 102.78C561.801 102.78 561.301 102.9 560.861 103.14C560.421 103.38 560.071 103.72 559.811 104.16C559.571 104.6 559.451 105.11 559.451 105.69L557.921 104.91C557.921 103.77 558.161 102.78 558.641 101.94C559.141 101.08 559.821 100.41 560.681 99.93C561.561 99.45 562.551 99.21 563.651 99.21C564.711 99.21 565.661 99.48 566.501 100.02C567.341 100.54 568.001 101.23 568.481 102.09C568.961 102.93 569.201 103.84 569.201 104.82V114H565.271ZM555.521 114V99.51H559.451V114H555.521ZM574.321 114V93.48H578.251V114H574.321ZM570.931 102.96V99.51H581.641V102.96H570.931ZM590.43 114.3C588.91 114.3 587.56 113.98 586.38 113.34C585.2 112.68 584.26 111.78 583.56 110.64C582.88 109.5 582.54 108.2 582.54 106.74C582.54 105.3 582.87 104.02 583.53 102.9C584.21 101.76 585.13 100.86 586.29 100.2C587.45 99.52 588.74 99.18 590.16 99.18C591.56 99.18 592.79 99.5 593.85 100.14C594.93 100.76 595.77 101.62 596.37 102.72C596.99 103.8 597.3 105.03 597.3 106.41C597.3 106.67 597.28 106.94 597.24 107.22C597.22 107.48 597.17 107.78 597.09 108.12L584.91 108.15V105.21L595.26 105.18L593.67 106.41C593.63 105.55 593.47 104.83 593.19 104.25C592.93 103.67 592.54 103.23 592.02 102.93C591.52 102.61 590.9 102.45 590.16 102.45C589.38 102.45 588.7 102.63 588.12 102.99C587.54 103.33 587.09 103.82 586.77 104.46C586.47 105.08 586.32 105.82 586.32 106.68C586.32 107.56 586.48 108.33 586.8 108.99C587.14 109.63 587.62 110.13 588.24 110.49C588.86 110.83 589.58 111 590.4 111C591.14 111 591.81 110.88 592.41 110.64C593.01 110.38 593.53 110 593.97 109.5L596.28 111.81C595.58 112.63 594.72 113.25 593.7 113.67C592.7 114.09 591.61 114.3 590.43 114.3ZM599.73 114V99.51H603.66V114H599.73ZM603.66 105.99L602.13 104.97C602.31 103.19 602.83 101.79 603.69 100.77C604.55 99.73 605.79 99.21 607.41 99.21C608.11 99.21 608.74 99.33 609.3 99.57C609.86 99.79 610.37 100.16 610.83 100.68L608.37 103.5C608.15 103.26 607.88 103.08 607.56 102.96C607.26 102.84 606.91 102.78 606.51 102.78C605.67 102.78 604.98 103.05 604.44 103.59C603.92 104.11 603.66 104.91 603.66 105.99ZM612.152 114V99.51H616.082V114H612.152ZM621.602 114V105.45C621.602 104.61 621.332 103.96 620.792 103.5C620.272 103.02 619.622 102.78 618.842 102.78C618.322 102.78 617.852 102.89 617.432 103.11C617.012 103.31 616.682 103.61 616.442 104.01C616.202 104.41 616.082 104.89 616.082 105.45L614.552 104.7C614.552 103.58 614.792 102.61 615.272 101.79C615.772 100.97 616.442 100.34 617.282 99.9C618.122 99.44 619.072 99.21 620.132 99.21C621.132 99.21 622.042 99.44 622.862 99.9C623.682 100.34 624.332 100.97 624.812 101.79C625.292 102.59 625.532 103.56 625.532 104.7V114H621.602ZM631.052 114V105.45C631.052 104.61 630.782 103.96 630.242 103.5C629.722 103.02 629.072 102.78 628.292 102.78C627.792 102.78 627.322 102.89 626.882 103.11C626.462 103.31 626.132 103.61 625.892 104.01C625.652 104.41 625.532 104.89 625.532 105.45L623.282 104.91C623.362 103.75 623.672 102.75 624.212 101.91C624.752 101.05 625.462 100.39 626.342 99.93C627.222 99.45 628.202 99.21 629.282 99.21C630.362 99.21 631.332 99.44 632.192 99.9C633.052 100.34 633.732 100.98 634.232 101.82C634.732 102.66 634.982 103.66 634.982 104.82V114H631.052ZM645.098 114.3C643.578 114.3 642.228 113.98 641.048 113.34C639.868 112.68 638.928 111.78 638.228 110.64C637.548 109.5 637.208 108.2 637.208 106.74C637.208 105.3 637.538 104.02 638.198 102.9C638.878 101.76 639.798 100.86 640.958 100.2C642.118 99.52 643.408 99.18 644.828 99.18C646.228 99.18 647.458 99.5 648.518 100.14C649.598 100.76 650.438 101.62 651.038 102.72C651.658 103.8 651.968 105.03 651.968 106.41C651.968 106.67 651.948 106.94 651.908 107.22C651.888 107.48 651.838 107.78 651.758 108.12L639.578 108.15V105.21L649.928 105.18L648.338 106.41C648.298 105.55 648.138 104.83 647.858 104.25C647.598 103.67 647.208 103.23 646.688 102.93C646.188 102.61 645.568 102.45 644.828 102.45C644.048 102.45 643.368 102.63 642.788 102.99C642.208 103.33 641.758 103.82 641.438 104.46C641.138 105.08 640.988 105.82 640.988 106.68C640.988 107.56 641.148 108.33 641.468 108.99C641.808 109.63 642.288 110.13 642.908 110.49C643.528 110.83 644.248 111 645.068 111C645.808 111 646.478 110.88 647.078 110.64C647.678 110.38 648.198 110 648.638 109.5L650.948 111.81C650.248 112.63 649.388 113.25 648.368 113.67C647.368 114.09 646.278 114.3 645.098 114.3ZM660.518 114.3C659.178 114.3 657.978 113.97 656.918 113.31C655.858 112.65 655.018 111.75 654.398 110.61C653.798 109.47 653.498 108.19 653.498 106.77C653.498 105.33 653.798 104.04 654.398 102.9C655.018 101.76 655.848 100.86 656.888 100.2C657.948 99.54 659.158 99.21 660.518 99.21C661.558 99.21 662.488 99.42 663.308 99.84C664.148 100.26 664.818 100.85 665.318 101.61C665.838 102.35 666.118 103.19 666.158 104.13V109.29C666.118 110.23 665.848 111.08 665.348 111.84C664.848 112.6 664.178 113.2 663.338 113.64C662.498 114.08 661.558 114.3 660.518 114.3ZM661.178 110.67C661.918 110.67 662.558 110.51 663.098 110.19C663.658 109.85 664.088 109.39 664.388 108.81C664.708 108.21 664.868 107.52 664.868 106.74C664.868 105.98 664.708 105.31 664.388 104.73C664.088 104.13 663.658 103.67 663.098 103.35C662.558 103.01 661.928 102.84 661.208 102.84C660.468 102.84 659.818 103.01 659.258 103.35C658.718 103.69 658.288 104.15 657.968 104.73C657.668 105.31 657.518 105.98 657.518 106.74C657.518 107.52 657.668 108.21 657.968 108.81C658.288 109.39 658.728 109.85 659.288 110.19C659.848 110.51 660.478 110.67 661.178 110.67ZM668.558 114H664.658V110.1L665.288 106.56L664.628 103.08V92.31H668.558V114ZM672.035 114V99.51H675.995V114H672.035ZM674.015 97.17C673.375 97.17 672.845 96.96 672.425 96.54C672.005 96.1 671.795 95.56 671.795 94.92C671.795 94.3 672.005 93.77 672.425 93.33C672.845 92.89 673.375 92.67 674.015 92.67C674.675 92.67 675.205 92.89 675.605 93.33C676.025 93.77 676.235 94.3 676.235 94.92C676.235 95.56 676.025 96.1 675.605 96.54C675.205 96.96 674.675 97.17 674.015 97.17ZM685.536 114.3C684.216 114.3 683.026 113.97 681.966 113.31C680.906 112.65 680.076 111.75 679.476 110.61C678.876 109.47 678.576 108.19 678.576 106.77C678.576 105.33 678.876 104.04 679.476 102.9C680.076 101.76 680.906 100.86 681.966 100.2C683.026 99.54 684.216 99.21 685.536 99.21C686.576 99.21 687.506 99.42 688.326 99.84C689.146 100.26 689.796 100.85 690.276 101.61C690.776 102.35 691.046 103.19 691.086 104.13V109.35C691.046 110.31 690.776 111.16 690.276 111.9C689.796 112.64 689.146 113.23 688.326 113.67C687.506 114.09 686.576 114.3 685.536 114.3ZM686.256 110.67C687.356 110.67 688.246 110.31 688.926 109.59C689.606 108.85 689.946 107.9 689.946 106.74C689.946 105.98 689.786 105.31 689.466 104.73C689.166 104.13 688.736 103.67 688.176 103.35C687.636 103.01 686.996 102.84 686.256 102.84C685.536 102.84 684.896 103.01 684.336 103.35C683.796 103.67 683.366 104.13 683.046 104.73C682.746 105.31 682.596 105.98 682.596 106.74C682.596 107.52 682.746 108.21 683.046 108.81C683.366 109.39 683.796 109.85 684.336 110.19C684.896 110.51 685.536 110.67 686.256 110.67ZM689.736 114V110.1L690.366 106.56L689.736 103.08V99.51H693.636V114H689.736ZM699.243 114V93.48H703.173V114H699.243ZM695.853 102.96V99.51H706.563V102.96H695.853ZM715.352 114.3C713.832 114.3 712.482 113.98 711.302 113.34C710.122 112.68 709.182 111.78 708.482 110.64C707.802 109.5 707.462 108.2 707.462 106.74C707.462 105.3 707.792 104.02 708.452 102.9C709.132 101.76 710.052 100.86 711.212 100.2C712.372 99.52 713.662 99.18 715.082 99.18C716.482 99.18 717.712 99.5 718.772 100.14C719.852 100.76 720.692 101.62 721.292 102.72C721.912 103.8 722.222 105.03 722.222 106.41C722.222 106.67 722.202 106.94 722.162 107.22C722.142 107.48 722.092 107.78 722.012 108.12L709.832 108.15V105.21L720.182 105.18L718.592 106.41C718.552 105.55 718.392 104.83 718.112 104.25C717.852 103.67 717.462 103.23 716.942 102.93C716.442 102.61 715.822 102.45 715.082 102.45C714.302 102.45 713.622 102.63 713.042 102.99C712.462 103.33 712.012 103.82 711.692 104.46C711.392 105.08 711.242 105.82 711.242 106.68C711.242 107.56 711.402 108.33 711.722 108.99C712.062 109.63 712.542 110.13 713.162 110.49C713.782 110.83 714.502 111 715.322 111C716.062 111 716.732 110.88 717.332 110.64C717.932 110.38 718.452 110 718.892 109.5L721.202 111.81C720.502 112.63 719.642 113.25 718.622 113.67C717.622 114.09 716.532 114.3 715.352 114.3ZM735.101 117.69C734.021 116.73 733.081 115.56 732.281 114.18C731.501 112.82 730.901 111.33 730.481 109.71C730.061 108.07 729.851 106.37 729.851 104.61C729.851 102.83 730.061 101.13 730.481 99.51C730.901 97.87 731.501 96.37 732.281 95.01C733.081 93.63 734.021 92.46 735.101 91.5L737.321 93.54C736.021 94.78 735.011 96.34 734.291 98.22C733.591 100.1 733.241 102.23 733.241 104.61C733.241 106.97 733.591 109.09 734.291 110.97C735.011 112.85 736.021 114.41 737.321 115.65L735.101 117.69ZM740.043 114V92.91H744.123V114H740.043ZM743.043 114V110.37H753.783V114H743.043ZM762.842 114.3C761.322 114.3 759.972 113.98 758.792 113.34C757.612 112.68 756.672 111.78 755.972 110.64C755.292 109.5 754.952 108.2 754.952 106.74C754.952 105.3 755.282 104.02 755.942 102.9C756.622 101.76 757.542 100.86 758.702 100.2C759.862 99.52 761.152 99.18 762.572 99.18C763.972 99.18 765.202 99.5 766.262 100.14C767.342 100.76 768.182 101.62 768.782 102.72C769.402 103.8 769.712 105.03 769.712 106.41C769.712 106.67 769.692 106.94 769.652 107.22C769.632 107.48 769.582 107.78 769.502 108.12L757.322 108.15V105.21L767.672 105.18L766.082 106.41C766.042 105.55 765.882 104.83 765.602 104.25C765.342 103.67 764.952 103.23 764.432 102.93C763.932 102.61 763.312 102.45 762.572 102.45C761.792 102.45 761.112 102.63 760.532 102.99C759.952 103.33 759.502 103.82 759.182 104.46C758.882 105.08 758.732 105.82 758.732 106.68C758.732 107.56 758.892 108.33 759.212 108.99C759.552 109.63 760.032 110.13 760.652 110.49C761.272 110.83 761.992 111 762.812 111C763.552 111 764.222 110.88 764.822 110.64C765.422 110.38 765.942 110 766.382 109.5L768.692 111.81C767.992 112.63 767.132 113.25 766.112 113.67C765.112 114.09 764.022 114.3 762.842 114.3ZM776.618 114L770.228 99.51H774.548L779.138 111.45H777.008L781.628 99.51H785.798L779.438 114H776.618ZM794.102 114.3C792.582 114.3 791.232 113.98 790.052 113.34C788.872 112.68 787.932 111.78 787.232 110.64C786.552 109.5 786.212 108.2 786.212 106.74C786.212 105.3 786.542 104.02 787.202 102.9C787.882 101.76 788.802 100.86 789.962 100.2C791.122 99.52 792.412 99.18 793.832 99.18C795.232 99.18 796.462 99.5 797.522 100.14C798.602 100.76 799.442 101.62 800.042 102.72C800.662 103.8 800.972 105.03 800.972 106.41C800.972 106.67 800.952 106.94 800.912 107.22C800.892 107.48 800.842 107.78 800.762 108.12L788.582 108.15V105.21L798.932 105.18L797.342 106.41C797.302 105.55 797.142 104.83 796.862 104.25C796.602 103.67 796.212 103.23 795.692 102.93C795.192 102.61 794.572 102.45 793.832 102.45C793.052 102.45 792.372 102.63 791.792 102.99C791.212 103.33 790.762 103.82 790.442 104.46C790.142 105.08 789.992 105.82 789.992 106.68C789.992 107.56 790.152 108.33 790.472 108.99C790.812 109.63 791.292 110.13 791.912 110.49C792.532 110.83 793.252 111 794.072 111C794.812 111 795.482 110.88 796.082 110.64C796.682 110.38 797.202 110 797.642 109.5L799.952 111.81C799.252 112.63 798.392 113.25 797.372 113.67C796.372 114.09 795.282 114.3 794.102 114.3ZM803.402 114V92.31H807.332V114H803.402ZM815.714 111.66L823.664 103.35C824.224 102.75 824.674 102.22 825.014 101.76C825.374 101.28 825.634 100.83 825.794 100.41C825.954 99.97 826.034 99.53 826.034 99.09C826.034 98.21 825.744 97.52 825.164 97.02C824.604 96.52 823.874 96.27 822.974 96.27C822.054 96.27 821.234 96.51 820.514 96.99C819.814 97.47 819.154 98.23 818.534 99.27L815.744 96.9C816.584 95.48 817.624 94.41 818.864 93.69C820.124 92.95 821.564 92.58 823.184 92.58C824.564 92.58 825.764 92.85 826.784 93.39C827.824 93.93 828.624 94.68 829.184 95.64C829.744 96.6 830.024 97.72 830.024 99C830.024 99.86 829.914 100.64 829.694 101.34C829.494 102.04 829.144 102.74 828.644 103.44C828.164 104.12 827.494 104.89 826.634 105.75L820.844 111.66H815.714ZM815.714 114V111.66L819.194 110.46H830.474V114H815.714ZM834.306 117.69L832.116 115.65C833.416 114.41 834.416 112.85 835.116 110.97C835.816 109.09 836.166 106.97 836.166 104.61C836.166 102.23 835.816 100.1 835.116 98.22C834.416 96.34 833.416 94.78 832.116 93.54L834.306 91.5C835.406 92.46 836.346 93.63 837.126 95.01C837.906 96.37 838.506 97.87 838.926 99.51C839.366 101.13 839.586 102.83 839.586 104.61C839.586 106.37 839.366 108.07 838.926 109.71C838.506 111.33 837.906 112.82 837.126 114.18C836.346 115.56 835.406 116.73 834.306 117.69Z" fill="white"/>
<path d="M990.163 114V92.91H994.243V114H990.163ZM993.163 114V110.4H1004.83V114H993.163ZM993.163 104.97V101.49H1003.78V104.97H993.163ZM993.163 96.51V92.91H1004.68V96.51H993.163ZM1016.85 114L1013.04 108.12L1012.23 107.52L1006.59 99.51H1011.24L1014.75 104.82L1015.5 105.39L1021.47 114H1016.85ZM1006.29 114L1012.2 105.72L1014.45 108.39L1010.73 114H1006.29ZM1015.65 107.49L1013.34 104.85L1016.79 99.51H1021.2L1015.65 107.49ZM1031.53 114.3C1030.49 114.3 1029.55 114.09 1028.71 113.67C1027.87 113.23 1027.2 112.64 1026.7 111.9C1026.2 111.16 1025.93 110.31 1025.89 109.35V104.22C1025.93 103.26 1026.2 102.41 1026.7 101.67C1027.22 100.91 1027.89 100.31 1028.71 99.87C1029.55 99.43 1030.49 99.21 1031.53 99.21C1032.87 99.21 1034.07 99.54 1035.13 100.2C1036.19 100.86 1037.02 101.76 1037.62 102.9C1038.24 104.04 1038.55 105.33 1038.55 106.77C1038.55 108.19 1038.24 109.47 1037.62 110.61C1037.02 111.75 1036.19 112.65 1035.13 113.31C1034.07 113.97 1032.87 114.3 1031.53 114.3ZM1030.84 110.67C1031.56 110.67 1032.2 110.51 1032.76 110.19C1033.32 109.85 1033.75 109.39 1034.05 108.81C1034.37 108.21 1034.53 107.52 1034.53 106.74C1034.53 105.98 1034.37 105.31 1034.05 104.73C1033.75 104.13 1033.32 103.67 1032.76 103.35C1032.2 103.01 1031.56 102.84 1030.84 102.84C1030.14 102.84 1029.51 103.01 1028.95 103.35C1028.39 103.67 1027.95 104.13 1027.63 104.73C1027.33 105.31 1027.18 105.98 1027.18 106.74C1027.18 107.52 1027.33 108.21 1027.63 108.81C1027.95 109.39 1028.38 109.85 1028.92 110.19C1029.48 110.51 1030.12 110.67 1030.84 110.67ZM1023.49 120.06V99.51H1027.42V103.32L1026.76 106.83L1027.39 110.34V120.06H1023.49ZM1048.06 114.3C1046.54 114.3 1045.19 113.98 1044.01 113.34C1042.83 112.68 1041.89 111.78 1041.19 110.64C1040.51 109.5 1040.17 108.2 1040.17 106.74C1040.17 105.3 1040.5 104.02 1041.16 102.9C1041.84 101.76 1042.76 100.86 1043.92 100.2C1045.08 99.52 1046.37 99.18 1047.79 99.18C1049.19 99.18 1050.42 99.5 1051.48 100.14C1052.56 100.76 1053.4 101.62 1054 102.72C1054.62 103.8 1054.93 105.03 1054.93 106.41C1054.93 106.67 1054.91 106.94 1054.87 107.22C1054.85 107.48 1054.8 107.78 1054.72 108.12L1042.54 108.15V105.21L1052.89 105.18L1051.3 106.41C1051.26 105.55 1051.1 104.83 1050.82 104.25C1050.56 103.67 1050.17 103.23 1049.65 102.93C1049.15 102.61 1048.53 102.45 1047.79 102.45C1047.01 102.45 1046.33 102.63 1045.75 102.99C1045.17 103.33 1044.72 103.82 1044.4 104.46C1044.1 105.08 1043.95 105.82 1043.95 106.68C1043.95 107.56 1044.11 108.33 1044.43 108.99C1044.77 109.63 1045.25 110.13 1045.87 110.49C1046.49 110.83 1047.21 111 1048.03 111C1048.77 111 1049.44 110.88 1050.04 110.64C1050.64 110.38 1051.16 110 1051.6 109.5L1053.91 111.81C1053.21 112.63 1052.35 113.25 1051.33 113.67C1050.33 114.09 1049.24 114.3 1048.06 114.3ZM1057.36 114V99.51H1061.29V114H1057.36ZM1061.29 105.99L1059.76 104.97C1059.94 103.19 1060.46 101.79 1061.32 100.77C1062.18 99.73 1063.42 99.21 1065.04 99.21C1065.74 99.21 1066.37 99.33 1066.93 99.57C1067.49 99.79 1068 100.16 1068.46 100.68L1066 103.5C1065.78 103.26 1065.51 103.08 1065.19 102.96C1064.89 102.84 1064.54 102.78 1064.14 102.78C1063.3 102.78 1062.61 103.05 1062.07 103.59C1061.55 104.11 1061.29 104.91 1061.29 105.99ZM1072.06 114V93.48H1075.99V114H1072.06ZM1068.67 102.96V99.51H1079.38V102.96H1068.67ZM1092.04 117.69C1090.96 116.73 1090.02 115.56 1089.22 114.18C1088.44 112.82 1087.84 111.33 1087.42 109.71C1087 108.07 1086.79 106.37 1086.79 104.61C1086.79 102.83 1087 101.13 1087.42 99.51C1087.84 97.87 1088.44 96.37 1089.22 95.01C1090.02 93.63 1090.96 92.46 1092.04 91.5L1094.26 93.54C1092.96 94.78 1091.95 96.34 1091.23 98.22C1090.53 100.1 1090.18 102.23 1090.18 104.61C1090.18 106.97 1090.53 109.09 1091.23 110.97C1091.95 112.85 1092.96 114.41 1094.26 115.65L1092.04 117.69ZM1096.98 114V92.91H1101.06V114H1096.98ZM1099.98 114V110.37H1110.72V114H1099.98ZM1119.78 114.3C1118.26 114.3 1116.91 113.98 1115.73 113.34C1114.55 112.68 1113.61 111.78 1112.91 110.64C1112.23 109.5 1111.89 108.2 1111.89 106.74C1111.89 105.3 1112.22 104.02 1112.88 102.9C1113.56 101.76 1114.48 100.86 1115.64 100.2C1116.8 99.52 1118.09 99.18 1119.51 99.18C1120.91 99.18 1122.14 99.5 1123.2 100.14C1124.28 100.76 1125.12 101.62 1125.72 102.72C1126.34 103.8 1126.65 105.03 1126.65 106.41C1126.65 106.67 1126.63 106.94 1126.59 107.22C1126.57 107.48 1126.52 107.78 1126.44 108.12L1114.26 108.15V105.21L1124.61 105.18L1123.02 106.41C1122.98 105.55 1122.82 104.83 1122.54 104.25C1122.28 103.67 1121.89 103.23 1121.37 102.93C1120.87 102.61 1120.25 102.45 1119.51 102.45C1118.73 102.45 1118.05 102.63 1117.47 102.99C1116.89 103.33 1116.44 103.82 1116.12 104.46C1115.82 105.08 1115.67 105.82 1115.67 106.68C1115.67 107.56 1115.83 108.33 1116.15 108.99C1116.49 109.63 1116.97 110.13 1117.59 110.49C1118.21 110.83 1118.93 111 1119.75 111C1120.49 111 1121.16 110.88 1121.76 110.64C1122.36 110.38 1122.88 110 1123.32 109.5L1125.63 111.81C1124.93 112.63 1124.07 113.25 1123.05 113.67C1122.05 114.09 1120.96 114.3 1119.78 114.3ZM1133.55 114L1127.16 99.51H1131.48L1136.07 111.45H1133.94L1138.56 99.51H1142.73L1136.37 114H1133.55ZM1151.04 114.3C1149.52 114.3 1148.17 113.98 1146.99 113.34C1145.81 112.68 1144.87 111.78 1144.17 110.64C1143.49 109.5 1143.15 108.2 1143.15 106.74C1143.15 105.3 1143.48 104.02 1144.14 102.9C1144.82 101.76 1145.74 100.86 1146.9 100.2C1148.06 99.52 1149.35 99.18 1150.77 99.18C1152.17 99.18 1153.4 99.5 1154.46 100.14C1155.54 100.76 1156.38 101.62 1156.98 102.72C1157.6 103.8 1157.91 105.03 1157.91 106.41C1157.91 106.67 1157.89 106.94 1157.85 107.22C1157.83 107.48 1157.78 107.78 1157.7 108.12L1145.52 108.15V105.21L1155.87 105.18L1154.28 106.41C1154.24 105.55 1154.08 104.83 1153.8 104.25C1153.54 103.67 1153.15 103.23 1152.63 102.93C1152.13 102.61 1151.51 102.45 1150.77 102.45C1149.99 102.45 1149.31 102.63 1148.73 102.99C1148.15 103.33 1147.7 103.82 1147.38 104.46C1147.08 105.08 1146.93 105.82 1146.93 106.68C1146.93 107.56 1147.09 108.33 1147.41 108.99C1147.75 109.63 1148.23 110.13 1148.85 110.49C1149.47 110.83 1150.19 111 1151.01 111C1151.75 111 1152.42 110.88 1153.02 110.64C1153.62 110.38 1154.14 110 1154.58 109.5L1156.89 111.81C1156.19 112.63 1155.33 113.25 1154.31 113.67C1153.31 114.09 1152.22 114.3 1151.04 114.3ZM1160.34 114V92.31H1164.27V114H1160.34ZM1176.7 114V92.91H1180.72V114H1176.7ZM1172.56 96.45V92.91H1180.42V96.45H1172.56ZM1185.68 117.69L1183.49 115.65C1184.79 114.41 1185.79 112.85 1186.49 110.97C1187.19 109.09 1187.54 106.97 1187.54 104.61C1187.54 102.23 1187.19 100.1 1186.49 98.22C1185.79 96.34 1184.79 94.78 1183.49 93.54L1185.68 91.5C1186.78 92.46 1187.72 93.63 1188.5 95.01C1189.28 96.37 1189.88 97.87 1190.3 99.51C1190.74 101.13 1190.96 102.83 1190.96 104.61C1190.96 106.37 1190.74 108.07 1190.3 109.71C1189.88 111.33 1189.28 112.82 1188.5 114.18C1187.72 115.56 1186.78 116.73 1185.68 117.69Z" fill="white"/>
<defs>
<linearGradient id="paint0_linear_575_41" x1="927.943" y1="100.865" x2="1266" y2="100.865" gradientUnits="userSpaceOnUse">
<stop stop-color="#245D51"/>
<stop offset="1" stop-color="#4BC3AA"/>
</linearGradient>
<linearGradient id="paint1_linear_575_41" x1="508.284" y1="102.865" x2="877" y2="102.865" gradientUnits="userSpaceOnUse">
<stop stop-color="#245D51"/>
<stop offset="1" stop-color="#4BC3AA"/>
</linearGradient>
<linearGradient id="paint2_linear_575_41" x1="88.2841" y1="102.865" x2="457" y2="102.865" gradientUnits="userSpaceOnUse">
<stop stop-color="#245D51"/>
<stop offset="1" stop-color="#4BC3AA"/>
</linearGradient>
</defs>
</svg>
